<svg width="192" height="38" viewBox="0 0 192 38" fill="none" xmlns="http://www.w3.org/2000/svg">
<path d="M0.00445145 9.06988V3.54065H6.19642V9.06988H13.4923L10.0781 14.3169H6.19642V23.5543C6.19642 24.9697 6.80627 25.6532 8.19067 25.6532C9.33024 25.6532 10.3496 25.371 11.2444 24.886V29.8111C9.94009 30.5783 8.43105 31.0633 6.35667 31.0633C2.56849 31.0633 0 29.5686 0 24.5685V9.06988H0.00445145Z" fill="white"/>
<path d="M12.1836 20.0048V19.9255C12.1836 13.7525 16.6217 8.66858 22.9784 8.66858C30.2698 8.66858 33.6129 14.2772 33.6129 20.4105C33.6129 20.8955 33.5728 21.4599 33.5328 22.0243H18.3399C18.9498 24.8065 20.904 26.2616 23.6772 26.2616C25.7561 26.2616 27.2607 25.6178 28.9745 24.0393L32.5178 27.1479C30.4791 29.6479 27.5456 31.1823 23.5971 31.1823C17.0401 31.1823 12.1925 26.6231 12.1925 20.0048H12.1836ZM27.5812 18.1882C27.2161 15.4412 25.5869 13.5893 22.9784 13.5893C20.3698 13.5893 18.7406 15.406 18.2509 18.1882H27.5812Z" fill="white"/>
<path d="M35.603 20.0666V19.9872C35.603 13.8142 40.3705 8.73035 47.0522 8.73035C51.1653 8.73035 53.7338 10.1016 55.7725 12.3636L51.9844 16.3981C50.6 14.9474 49.2156 14.0171 47.0121 14.0171C43.9183 14.0171 41.7149 16.72 41.7149 19.9079V19.9872C41.7149 23.2942 43.8738 25.9574 47.2569 25.9574C49.3358 25.9574 50.7602 25.0711 52.2693 23.6557L55.8972 27.289C53.7783 29.5862 51.3345 31.2441 46.9765 31.2441C40.4195 31.2441 35.6119 26.2396 35.6119 20.0666H35.603Z" fill="white"/>
<path d="M57.8823 3.90221L64.0743 0V12.1961C65.4988 10.3794 67.3328 8.72596 70.471 8.72596C75.154 8.72596 77.8827 11.7948 77.8827 16.7552V30.7547H71.6907V18.6909C71.6907 15.7852 70.3063 14.2905 67.9426 14.2905C65.5789 14.2905 64.0743 15.7852 64.0743 18.6909V30.7547H57.8823V3.90221Z" fill="white"/>
<path d="M79.5073 27.893L82.1559 23.8585C84.5197 25.5517 87.0036 26.4424 89.0423 26.4424C90.8363 26.4424 91.6509 25.7986 91.6509 24.8286V24.7492C91.6509 23.4176 89.532 22.9723 87.1282 22.2491C84.0701 21.3629 80.6113 19.9475 80.6113 15.7543V15.6749C80.6113 11.2745 84.1947 8.81409 88.5972 8.81409C91.366 8.81409 94.3796 9.74003 96.7433 11.3141L94.3796 15.5515C92.2207 14.2992 90.0617 13.5364 88.4725 13.5364C86.8834 13.5364 86.1934 14.1802 86.1934 15.0312V15.1105C86.1934 16.3231 88.2722 16.8875 90.6315 17.6944C93.6896 18.7041 97.233 20.1547 97.233 24.1099V24.1892C97.233 28.9909 93.6051 31.1691 88.8821 31.1691C85.8284 31.1691 82.4052 30.1594 79.5118 27.9018L79.5073 27.893Z" fill="#F15830"/>
<path d="M98.5688 20.0666V19.9872C98.5688 13.7746 103.621 8.73035 110.423 8.73035C117.225 8.73035 122.197 13.6952 122.197 19.9079V19.9872C122.197 26.1999 117.145 31.2441 110.343 31.2441C103.541 31.2441 98.5688 26.2793 98.5688 20.0666ZM116.085 20.0666V19.9872C116.085 16.7993 113.762 14.0171 110.343 14.0171C106.924 14.0171 104.681 16.72 104.681 19.9079V19.9872C104.681 23.1751 107.004 25.9574 110.423 25.9574C113.842 25.9574 116.085 23.2545 116.085 20.0666Z" fill="#F15830"/>
<path d="M124.307 11.7331L130.499 7.83093V12.2402C132.008 10.2208 134.083 8.73042 137.301 8.73042C142.393 8.73042 147.241 12.6855 147.241 19.9079V19.9873C147.241 27.2097 142.474 31.1648 137.301 31.1648C134.002 31.1648 131.964 29.6701 130.499 27.9372V37.2188H124.307V11.7331ZM141.049 19.9829V19.9035C141.049 16.3144 138.605 13.9334 135.712 13.9334C132.818 13.9334 130.415 16.3144 130.415 19.9035V19.9829C130.415 23.572 132.818 25.9531 135.712 25.9531C138.605 25.9531 141.049 23.6117 141.049 19.9829Z" fill="#F15830"/>
<path d="M149.271 3.90221L155.462 0V12.1961C156.887 10.3794 158.721 8.72596 161.859 8.72596C166.542 8.72596 169.271 11.7948 169.271 16.7552V30.7547H163.079V18.6909C163.079 15.7852 161.695 14.2905 159.331 14.2905C156.967 14.2905 155.462 15.7852 155.462 18.6909V30.7547H149.271V3.90221Z" fill="#F15830"/>
<path d="M185.563 9.13159H192L183.609 31.2838C181.94 35.6842 180.146 37.3377 176.438 37.3377C174.199 37.3377 172.525 36.7733 170.94 35.843L173.019 31.4073C173.834 31.8923 174.853 32.2538 175.668 32.2538C176.727 32.2538 177.297 31.932 177.827 30.8429L169.271 9.13159H175.828L180.796 23.8586L185.563 9.13159Z" fill="#F15830"/>
</svg>
